<?xml version="1.0" encoding="UTF-8"?>
<svg version="1.1" xmlns="http://www.w3.org/2000/svg" width="487" height="517">
<path d="M0 0 C7.67211202 -0.02526605 15.3442134 -0.04283123 23.01635742 -0.05493164 C25.62866619 -0.05997377 28.24097211 -0.06680725 30.85327148 -0.07543945 C34.59880268 -0.08751036 38.34429672 -0.09322935 42.08984375 -0.09765625 C43.26586655 -0.10281754 44.44188934 -0.10797882 45.65354919 -0.11329651 C46.73459427 -0.11337204 47.81563934 -0.11344757 48.92944336 -0.11352539 C49.88652695 -0.115746 50.84361053 -0.11796661 51.82969666 -0.12025452 C54 0 54 0 55 1 C55.10244624 2.81331638 55.13571332 4.63057969 55.1418457 6.44677734 C55.14888016 7.61244232 55.15591461 8.7781073 55.16316223 9.97909546 C55.16732651 11.25185333 55.17149078 12.52461121 55.17578125 13.8359375 C55.19304415 15.82942931 55.21033123 17.82292123 55.22898388 19.81640053 C55.27450029 24.74101264 55.31219366 29.66552169 55.32592773 34.59033203 C55.33411433 37.34530238 55.35283518 40.09982575 55.38285828 42.85464478 C55.41080461 45.44678851 55.42394796 48.03914785 55.41999817 50.63143921 C55.5944989 63.29960599 59.2741108 73.86100436 68.03515625 83.16015625 C78.61751012 93.14526969 90.3654221 96.65639091 104.70703125 96.30859375 C115.6461307 95.72803375 126.47219314 90.71275207 134.1015625 82.828125 C143.2254441 71.56886686 145.28738105 61.20963033 145.4140625 46.97265625 C145.43279754 45.61501418 145.45237266 44.25738346 145.4727478 42.89976501 C145.52382867 39.34726696 145.56358202 35.79473125 145.60089111 32.24206543 C145.64108262 28.60855007 145.69200175 24.97518567 145.7421875 21.34179688 C145.83966564 14.22792354 145.91937422 7.11416407 146 0 C164.81 0 183.62 0 203 0 C203.33 16.17 203.66 32.34 204 49 C207.63 49 211.26 49 215 49 C217.09868217 45.85197675 217.25962003 45.0397817 217.31884766 41.43676758 C217.33890869 40.50320435 217.35896973 39.56964111 217.37963867 38.60778809 C217.39667847 37.14097595 217.39667847 37.14097595 217.4140625 35.64453125 C217.44052856 34.29264709 217.44052856 34.29264709 217.4675293 32.91345215 C217.53059763 29.54664963 217.57678343 26.17954796 217.625 22.8125 C217.810625 11.5203125 217.810625 11.5203125 218 0 C235.82 0 253.64 0 272 0 C272.4375 22.3125 272.4375 22.3125 272.56811523 29.34887695 C272.60623722 31.18701945 272.64470627 33.02515479 272.68359375 34.86328125 C272.70006958 35.81956421 272.71654541 36.77584717 272.73352051 37.7611084 C272.75370239 38.6743689 272.77388428 39.58762939 272.79467773 40.52856445 C272.81022202 41.32132278 272.8257663 42.11408112 272.84178162 42.93086243 C272.93081226 45.19739774 272.93081226 45.19739774 274 48 C276.53446873 49.26723437 278.32226954 49.12941328 281.15625 49.1328125 C282.17847656 49.13410156 283.20070313 49.13539063 284.25390625 49.13671875 C285.86072266 49.13091797 285.86072266 49.13091797 287.5 49.125 C288.57121094 49.12886719 289.64242188 49.13273437 290.74609375 49.13671875 C292.27943359 49.13478516 292.27943359 49.13478516 293.84375 49.1328125 C294.78412109 49.13168457 295.72449219 49.13055664 296.69335938 49.12939453 C299.02769872 49.15132401 299.02769872 49.15132401 301 48 C301.33 32.16 301.66 16.32 302 0 C320.15 0 338.3 0 357 0 C357.4375 23.375 357.4375 23.375 357.56811523 30.75537109 C357.60622827 32.67806746 357.64469656 34.60075684 357.68359375 36.5234375 C357.70006958 37.52802002 357.71654541 38.53260254 357.73352051 39.56762695 C357.75370239 40.52161377 357.77388428 41.47560059 357.79467773 42.45849609 C357.81022202 43.28900482 357.8257663 44.11951355 357.84178162 44.97518921 C357.87765197 47.06878436 357.87765197 47.06878436 359 49 C360.99954746 49.04254356 363.00041636 49.04080783 365 49 C366.59865963 47.40134037 366.16483531 45.69543968 366.20532227 43.48022461 C366.23559509 42.01860901 366.23559509 42.01860901 366.26647949 40.52746582 C366.28295532 39.49617554 366.29943115 38.46488525 366.31640625 37.40234375 C366.34438293 35.98846375 366.34438293 35.98846375 366.3729248 34.54602051 C366.44145282 31.00994639 366.50145412 27.4737112 366.5625 23.9375 C366.706875 16.038125 366.85125 8.13875 367 0 C385.48 0 403.96 0 423 0 C423.375 23.375 423.375 23.375 423.47802734 30.75537109 C423.51322088 32.67807427 423.54914073 34.60076434 423.5859375 36.5234375 C423.59729736 37.52802002 423.60865723 38.53260254 423.62036133 39.56762695 C423.64042236 40.52161377 423.6604834 41.47560059 423.68115234 42.45849609 C423.70113785 43.70425919 423.70113785 43.70425919 423.7215271 44.97518921 C423.82335542 47.22613614 423.82335542 47.22613614 426 49 C427.98 49.33 429.96 49.66 432 50 C432 33.5 432 17 432 0 C450.15 0 468.3 0 487 0 C487 35.31 487 70.62 487 107 C470.78875 107.0928125 470.78875 107.0928125 454.25 107.1875 C449.16706543 107.22846802 449.16706543 107.22846802 443.98144531 107.27026367 C441.26367549 107.27903424 438.54590169 107.28667682 435.828125 107.29296875 C435.13885925 107.30080887 434.44959351 107.30864899 433.73944092 107.31672668 C422.92011415 107.4334364 411.70985105 107.19946862 402.5 100.8125 C399.08125448 98.47065932 398.34334882 98 394 98 C391.70132991 99.20147528 391.70132991 99.20147528 389.375 100.8125 C377.28634775 108.27332759 363.00262256 109.3751671 349.14453125 106.86328125 C341.53304768 104.77366899 335.02310289 101.04107524 329 96 C328.175 96.7425 327.35 97.485 326.5 98.25 C315.42829805 107.38156727 302.48052301 107.37326281 288.77929688 107.37060547 C286.26883466 107.37496728 283.76015145 107.41135009 281.25 107.44921875 C269.95750711 107.52791354 258.81962163 106.89938317 249 100.625 C246.12389842 98.66804862 246.12389842 98.66804862 243.0625 99.5 C241.42981884 100.29968057 239.80025274 101.10745623 238.19921875 101.96875 C229.55870571 106.54008355 220.8656729 107.36713072 211.1875 107.3125 C209.75543213 107.31056641 209.75543213 107.31056641 208.29443359 107.30859375 C200.84944989 107.20776445 194.12639592 106.25893305 187 104 C186.62230469 104.65484375 186.24460938 105.3096875 185.85546875 105.984375 C181.0620312 113.93227614 175.48204264 120.42780377 169 127 C168.20722656 127.80566406 167.41445312 128.61132812 166.59765625 129.44140625 C156.81988215 138.7961818 144.71782037 145.5124009 132 150 C131.16855469 150.29519531 130.33710938 150.59039062 129.48046875 150.89453125 C104.60579389 158.65115029 76.90361632 155.51813554 53.81201172 143.95751953 C30.70074873 131.74485806 12.51982222 110.72263771 4 86 C0.66454884 74.62679272 -0.56578122 64.05855613 -0.390625 52.24609375 C-0.38313405 50.72340145 -0.3774547 49.2006993 -0.37347412 47.67799377 C-0.35844149 43.73401701 -0.31936356 39.79066087 -0.2746582 35.84692383 C-0.23321227 31.79712309 -0.21535956 27.7472188 -0.1953125 23.69726562 C-0.15283864 15.79789711 -0.08487213 7.89902645 0 0 Z " fill="#545E52" transform="translate(0,339)"/>
<path d="M0 0 C17.49 0 34.98 0 53 0 C53.06058594 3.79628906 53.12117188 7.59257813 53.18359375 11.50390625 C53.24560455 15.22747353 53.30889988 18.95101694 53.37231445 22.67456055 C53.41532085 25.2396426 53.4570159 27.80474702 53.49731445 30.36987305 C53.72310445 47.17318592 53.72310445 47.17318592 54.34765625 63.96484375 C54.42705444 65.58120728 54.42705444 65.58120728 54.50805664 67.23022461 C55.10000181 70.56303749 55.84453899 72.37454916 58 75 C64.20153582 78.49496167 69.84563095 78.41601631 76.8513031 78.36076355 C78.63661984 78.36460846 78.63661984 78.36460846 80.45800358 78.36853105 C83.74877759 78.37260878 87.03919455 78.36326881 90.32992637 78.34819686 C93.88334675 78.33521435 97.43675117 78.33962752 100.9901886 78.34190369 C107.14247496 78.34347502 113.29466571 78.33408045 119.44692802 78.31719017 C128.34199753 78.29278577 137.23702091 78.28499343 146.13212026 78.2812262 C160.56458749 78.27466397 174.99700378 78.25470902 189.42944336 78.22631836 C203.44734442 78.19877186 217.46523163 78.17754117 231.4831543 78.16479492 C232.34754395 78.16400675 233.2119336 78.16321858 234.10251688 78.16240653 C238.43900302 78.15849135 242.77548925 78.15470024 247.11197555 78.15097082 C283.07468633 78.11988204 319.03733919 78.06705247 355 78 C354.99214478 77.37512192 354.98428955 76.75024384 354.97619629 76.10643005 C354.94474272 73.23634158 354.92541582 70.36628955 354.90625 67.49609375 C354.88739746 66.02190979 354.88739746 66.02190979 354.86816406 64.51794434 C354.78076117 47.03372351 361.52417989 30.86948131 373.51220703 18.15356445 C387.43739282 4.32537707 404.03448791 -0.28982115 423.20703125 -0.2421875 C441.00383313 -0.01860959 455.85994388 6.66463138 468.4140625 19.21875 C482.59886162 34.47490857 487.84146219 52.80810667 487.28125 73.25390625 C486.47387362 90.3198245 478.03058738 104.44107723 465.9375 116.125 C451.19009003 128.62109009 433.85102071 132.63177718 414.97801208 132.50793457 C413.41998832 132.51255573 411.86196893 132.51891673 410.30395848 132.52684355 C406.06636264 132.54339323 401.82913158 132.53535677 397.59153521 132.52289867 C393.00455221 132.51379111 388.41762884 132.52784596 383.83065796 132.53881836 C374.86232584 132.55654722 365.89412809 132.55278893 356.92579084 132.5411678 C349.63363743 132.53211205 342.34152152 132.53091871 335.04936409 132.53526306 C334.00912737 132.53587599 332.96889065 132.53648893 331.89713161 132.53712043 C329.78352585 132.53839941 327.6699201 132.53969626 325.55631436 132.5410108 C305.76616607 132.55239995 285.97609205 132.53932876 266.18595595 132.51780933 C249.22525183 132.49993724 232.26465723 132.50304663 215.30395508 132.52148438 C195.5801544 132.54291599 175.8564187 132.55130424 156.132608 132.53903532 C154.02734539 132.5377612 151.92208277 132.53650371 149.81682014 132.53526306 C148.26330797 132.53433741 148.26330797 132.53433741 146.6784117 132.53339306 C139.39912679 132.52994723 132.11988328 132.53575187 124.84060478 132.54518127 C115.96378737 132.556428 107.08711136 132.55330503 98.21031003 132.5320583 C93.68597198 132.5215842 89.16186922 132.5173636 84.63753319 132.53065491 C80.48797025 132.54266042 76.33885852 132.53588346 72.18933595 132.5147447 C70.69627906 132.51031295 69.20318327 132.51246679 67.71015184 132.52224785 C48.58256745 132.63784622 33.37004107 127.00597603 19.72265625 113.71484375 C18.82417969 112.81894531 17.92570312 111.92304688 17 111 C16.31808594 110.34128906 15.63617188 109.68257813 14.93359375 109.00390625 C1.61351176 95.14744512 -0.47081608 77.24370334 -0.29296875 58.984375 C-0.28736067 57.27517065 -0.28309631 55.56596142 -0.28010559 53.85675049 C-0.26875211 49.3982773 -0.23936893 44.94010594 -0.20599365 40.48175049 C-0.16963398 35.11095922 -0.1560863 29.74006599 -0.13863373 24.3691864 C-0.10972411 16.24591554 -0.05217156 8.12330451 0 0 Z M409.1875 61.6875 C407.42809389 65.11371191 407.43299553 68.22514832 408 72 C409.39292186 74.78584372 410.41743641 75.70871821 413.1875 77.09375 C416.53296002 78.17173156 419.30489218 78.19586076 422.8125 78.125 C423.97394531 78.10695313 425.13539063 78.08890625 426.33203125 78.0703125 C427.65267578 78.03550781 427.65267578 78.03550781 429 78 C429.10854617 75.60293877 429.18753157 73.21084162 429.25 70.8125 C429.28351563 70.13896484 429.31703125 69.46542969 429.3515625 68.77148438 C429.42100542 65.21253455 429.09190964 63.15469736 427.26171875 60.07421875 C424.19324874 57.26012967 422.21133777 57.09476079 418.18359375 56.86328125 C414.12899218 57.11714718 412.04612953 59.02601733 409.1875 61.6875 Z " fill="#545E52" transform="translate(0,58)"/>
<path d="M0 0 C1.93785494 -0.00571062 3.87570652 -0.01267754 5.81355286 -0.02079773 C11.0513938 -0.03867072 16.28906667 -0.03757143 21.5269289 -0.03185534 C25.91268346 -0.02875407 30.29840617 -0.03486657 34.68415618 -0.04089409 C45.03930189 -0.05491937 55.39436508 -0.05339551 65.74951172 -0.04199219 C76.40080402 -0.03052127 87.05184422 -0.04457405 97.7031033 -0.07138866 C106.87547609 -0.09360808 116.04777011 -0.10016876 125.22016788 -0.09431225 C130.68615937 -0.09095538 136.15198943 -0.09327249 141.61795807 -0.11056328 C146.76290176 -0.12612939 151.90747484 -0.12197046 157.0524044 -0.10325813 C158.92957938 -0.09959843 160.8067824 -0.10260328 162.68393135 -0.11314392 C183.40621884 -0.22052689 202.08102273 4.33661505 217.56811523 18.9140625 C230.74143187 32.1640075 236.03417969 48.06379704 236.03417969 66.45166016 C235.73820866 85.09278983 228.7090471 101.61879459 215.50292969 114.81811523 C202.36705797 127.03152405 187.16952988 132.81935804 169.40917969 132.71655273 C168.39170654 132.71091309 167.3742334 132.70527344 166.32592773 132.69946289 C148.36722368 132.40904113 134.62891604 125.62707131 121.60449219 113.41967773 C108.76102026 100.12643442 103.39612061 83.03438884 103.62792969 64.90795898 C103.63469727 63.89447388 103.64146484 62.88098877 103.6484375 61.83679199 C103.66596338 59.35907006 103.69053447 56.88163455 103.72167969 54.40405273 C89.25692343 54.31045857 74.79221439 54.24026613 60.3272171 54.19680405 C53.61029414 54.17621103 46.89355973 54.1481534 40.17675781 54.10229492 C33.69284568 54.0587861 27.20912926 54.03490459 20.7250824 54.02454376 C18.2531781 54.01716154 15.78128433 54.00274581 13.3094635 53.98113251 C9.84311907 53.95203272 6.37758003 53.94809964 2.91113281 53.94995117 C1.8926123 53.93557007 0.8740918 53.92118896 -0.17529297 53.90637207 C-6.16371089 53.94091042 -11.46761633 54.53033809 -16.27832031 58.40405273 C-23.14476614 69.77430654 -19.63232021 92.11759069 -19.84082031 104.84155273 C-19.98519531 113.27717773 -20.12957031 121.71280273 -20.27832031 130.40405273 C-37.76832031 130.40405273 -55.25832031 130.40405273 -73.27832031 130.40405273 C-73.39864674 112.16791409 -73.39864674 112.16791409 -73.42480469 104.32983398 C-73.44266328 99.00405794 -73.46367493 93.6784382 -73.50463867 88.3527832 C-73.5374936 84.05391489 -73.55522778 79.75521445 -73.56295204 75.45623016 C-73.56844906 73.82496248 -73.57918187 72.19370285 -73.59551048 70.56250763 C-73.77720776 51.64015879 -69.79915285 35.37591516 -56.39086914 21.46191406 C-55.03281097 20.09645124 -53.65605797 18.74965657 -52.27832031 17.40405273 C-51.2921875 16.38698242 -51.2921875 16.38698242 -50.28613281 15.34936523 C-36.29439774 1.83803309 -18.41382119 -0.04914844 0 0 Z M156.72167969 53.40405273 C155.9549524 63.45110478 155.9549524 63.45110478 159.72167969 72.40405273 C162.78838697 75.2001682 165.19544751 75.64044316 169.22167969 75.46655273 C172.86120346 74.89540877 173.80536686 74.33402877 176.78417969 71.84155273 C179.08169668 67.76531291 179.86554059 64.97041809 178.72167969 60.40405273 C177.11132449 57.46864149 175.21118496 54.96261721 171.97167969 53.74780273 C168.95182202 53.28643559 166.0250265 53.31101927 162.97167969 53.34155273 C161.21597656 53.35508789 161.21597656 53.35508789 159.42480469 53.36889648 C158.53277344 53.38049805 157.64074219 53.39209961 156.72167969 53.40405273 Z " fill="#545E52" transform="translate(73.2783203125,199.595947265625)"/>
<path d="M0 0 C17.82 0 35.64 0 54 0 C53.67 24.42 53.34 48.84 53 74 C61.889375 74.020625 70.77875 74.04125 79.9375 74.0625 C84.15261353 74.07615601 84.15261353 74.07615601 88.45288086 74.09008789 C90.66520134 74.09300683 92.87752235 74.09555544 95.08984375 74.09765625 C96.83110535 74.1053302 96.83110535 74.1053302 98.60754395 74.11315918 C99.70377075 74.11328003 100.79999756 74.11340088 101.92944336 74.11352539 C102.88652695 74.115746 103.84361053 74.11796661 104.82969666 74.12025452 C106.97917624 74.24312499 106.97917624 74.24312499 108 73 C108.1241622 70.73079775 108.17803748 68.4577355 108.20532227 66.18530273 C108.21522186 65.47314606 108.22512146 64.76098938 108.23532104 64.0272522 C108.26702212 61.66273372 108.29172724 59.29819511 108.31640625 56.93359375 C108.33696836 55.29833948 108.35796463 53.66309062 108.37937927 52.02784729 C108.43467672 47.71571214 108.48405201 43.40352842 108.53222656 39.09130859 C108.59119862 33.92174189 108.65746862 28.7522643 108.72252655 23.5827713 C108.82063256 15.72190178 108.90942244 7.86097613 109 0 C126.49 0 143.98 0 162 0 C162.41000116 19.86277369 162.41000116 19.86277369 162.55078125 28.41601562 C162.64646863 34.22240096 162.74650748 40.02845395 162.87451172 45.83422852 C162.97756887 50.52192637 163.05939833 55.20958307 163.12732697 59.89791679 C163.15664616 61.67474486 163.19324993 63.45147014 163.2377243 65.22798347 C163.71699444 84.78325838 160.04603885 101.20140003 146.15625 115.97265625 C135.29605775 126.18359788 121.80560416 131.98010229 106.9453125 132.6015625 C106.17897491 132.63827057 105.41263733 132.67497864 104.62307739 132.71279907 C95.37553128 133.12225773 86.12351548 133.29398327 76.86767578 133.35009766 C74.86886003 133.36672999 72.87010547 133.3941144 70.87158203 133.43212891 C50.04050198 133.82298781 31.96378549 130.27273173 16.28515625 115.4140625 C5.82553919 104.36441576 -0.37187583 90.62156586 -0.22705078 75.38085938 C-0.22734283 74.56039124 -0.22763489 73.7399231 -0.22793579 72.89459229 C-0.22655408 70.21086665 -0.21104806 67.52742651 -0.1953125 64.84375 C-0.19157824 62.97188468 -0.18873322 61.10001739 -0.18673706 59.22814941 C-0.17913311 54.3225354 -0.15951267 49.41704147 -0.1373291 44.51147461 C-0.11318576 38.61428305 -0.10407426 32.71705115 -0.09242249 26.81982422 C-0.07308621 17.87979952 -0.03474108 8.94003786 0 0 Z " fill="#545E52" transform="translate(323,199)"/>
<path d="M0 0 C39.27 0 78.54 0 119 0 C119 15.18 119 30.36 119 46 C79.73 46 40.46 46 0 46 C0 30.82 0 15.64 0 0 Z " fill="#545E52" transform="translate(200,471)"/>
<path d="M0 0 C15.84 0 31.68 0 48 0 C48 15.18 48 30.36 48 46 C32.16 46 16.32 46 0 46 C0 30.82 0 15.64 0 0 Z " fill="#545E52" transform="translate(75,339)"/>
<path d="M0 0 C1.34644592 -0.00472824 1.34644592 -0.00472824 2.72009277 -0.009552 C4.18412537 -0.00651566 4.18412537 -0.00651566 5.67773438 -0.00341797 C6.67276978 -0.00437469 7.66780518 -0.00533142 8.69299316 -0.00631714 C10.80135155 -0.00699907 12.90971203 -0.0051439 15.01806641 -0.00097656 C18.25753465 0.0043715 21.49686423 -0.00092114 24.73632812 -0.00732422 C26.77929718 -0.00666344 28.82226615 -0.00538228 30.86523438 -0.00341797 C31.8412561 -0.0054422 32.81727783 -0.00746643 33.82287598 -0.009552 C34.72050659 -0.00639984 35.61813721 -0.00324768 36.54296875 0 C37.73424377 0.00119339 37.73424377 0.00119339 38.94958496 0.00241089 C40.77148438 0.12939453 40.77148438 0.12939453 41.77148438 1.12939453 C41.86435698 2.54164499 41.88895209 3.95848388 41.88500977 5.3737793 C41.88488892 6.28728149 41.88476807 7.20078369 41.88464355 8.14196777 C41.87952759 9.10848267 41.87441162 10.07499756 41.86914062 11.07080078 C41.86813354 11.95441284 41.86712646 12.8380249 41.86608887 13.74841309 C41.86083968 17.06292002 41.84687854 20.37740852 41.83398438 23.69189453 C41.81335938 31.09626953 41.79273438 38.50064453 41.77148438 46.12939453 C26.26148438 46.12939453 10.75148438 46.12939453 -5.22851562 46.12939453 C-5.24914062 38.72501953 -5.26976562 31.32064453 -5.29101562 23.69189453 C-5.30011963 21.35168213 -5.30922363 19.01146973 -5.31860352 16.6003418 C-5.32152256 14.75716204 -5.32407114 12.91398165 -5.32617188 11.07080078 C-5.33128784 10.10428589 -5.33640381 9.137771 -5.3416748 8.14196777 C-5.34179565 7.22846558 -5.3419165 6.31496338 -5.34204102 5.3737793 C-5.34426163 4.57657974 -5.34648224 3.77938019 -5.34877014 2.95802307 C-5.11418473 -0.60915751 -3.07549242 0.00308095 0 0 Z " fill="#545E52" transform="translate(408.228515625,-0.12939453125)"/>
</svg>
